<?xml version="1.0" encoding="iso-8859-1"?>
<!-- Generator: Adobe Illustrator 18.0.0, SVG Export Plug-In . SVG Version: 6.00 Build 0)  -->
<!DOCTYPE svg PUBLIC "-//W3C//DTD SVG 1.1//EN" "http://www.w3.org/Graphics/SVG/1.1/DTD/svg11.dtd">
<svg version="1.1" id="Capa_1" xmlns="http://www.w3.org/2000/svg" xmlns:xlink="http://www.w3.org/1999/xlink" x="0px" y="0px"
	 viewBox="0 0 381.678 381.678" style="enable-background:new 0 0 381.678 381.678;" xml:space="preserve">
<g>
	<path style="fill:#211915;" d="M374.989,190.691l-10.216-6.854l-7.761-21.44c-1.352-3.734-4.785-6.315-8.749-6.575l-107.727-7.065
		l-31.874-22.369c-16.114-11.308-36.34-15.188-55.494-10.644l-23.529,5.583c-25.215,5.982-49.437,15.61-71.846,28.436
		c-0.313-0.03-0.629-0.048-0.95-0.048H29.985l-9.074-9.074c-3.905-3.905-10.237-3.905-14.143,0c-3.905,3.905-3.905,10.237,0,14.143
		l12.003,12.003c1.875,1.875,4.419,2.929,7.071,2.929h1.918c-5.84,4.469-11.506,9.177-16.971,14.122
		c-2.095,1.896-3.291,4.589-3.291,7.415v8.262L1.04,212.55c-0.684,1.38-1.04,2.9-1.04,4.44c0,12.406,10.093,22.499,22.499,22.499
		h36.258c4.41,16.286,19.31,28.304,36.971,28.304s32.562-12.018,36.971-28.304h123.539c4.41,16.286,19.31,28.304,36.971,28.304
		s32.562-12.018,36.971-28.304h24.834c10.034,0,18.94-6.746,21.659-16.406l4.435-15.768
		C382.881,201.017,380.422,194.336,374.989,190.691z M357.421,217.666c-0.302,1.073-1.291,1.823-2.406,1.823h-24.834
		c-4.41-16.286-19.31-28.304-36.971-28.304s-32.562,12.018-36.971,28.304H132.699c-4.41-16.286-19.31-28.304-36.971-28.304
		s-32.562,12.018-36.971,28.304H22.499c-0.846,0-1.596-0.423-2.048-1.068l6.009-12.126c0.684-1.38,1.04-2.9,1.04-4.44v-6.113
		c30.51-26.634,67.328-45.602,106.755-54.955l23.529-5.583c13.597-3.226,27.952-0.471,39.389,7.555l34.167,23.979
		c1.5,1.053,3.261,1.673,5.09,1.793l104,6.821l6.65,18.371c0.724,1.999,2.066,3.716,3.831,4.9l9.982,6.697L357.421,217.666z
		 M311.514,229.489c0,10.093-8.211,18.304-18.304,18.304s-18.304-8.211-18.304-18.304s8.211-18.304,18.304-18.304
		S311.514,219.396,311.514,229.489z M114.032,229.489c0,10.093-8.211,18.304-18.304,18.304s-18.304-8.211-18.304-18.304
		s8.211-18.304,18.304-18.304S114.032,219.396,114.032,229.489z"/>
</g>
<g>
</g>
<g>
</g>
<g>
</g>
<g>
</g>
<g>
</g>
<g>
</g>
<g>
</g>
<g>
</g>
<g>
</g>
<g>
</g>
<g>
</g>
<g>
</g>
<g>
</g>
<g>
</g>
<g>
</g>
</svg>
