<svg id="Layer_1" enable-background="new 0 0 512 512" height="512" viewBox="0 0 512 512" width="512" xmlns="http://www.w3.org/2000/svg"><g><path d="m383.467 288.134c0-8.284-6.732-15-15.017-15-59.878 0-92.604 39.58-97.45 45.309v-65.786c11.632-3.563 21.708-11.097 28.154-21 16.316 3.449 34.434-1.512 46.974-14.061 12.546-12.545 17.509-30.656 14.061-46.974 13.979-9.098 23.278-25.413 23.278-43.155 0-17.745-9.3-34.063-23.276-43.161 3.449-16.316-1.514-34.428-14.059-46.972-12.541-12.55-30.654-17.514-46.979-14.059-9.097-13.976-25.412-23.275-43.153-23.275s-34.056 9.299-43.152 23.275c-16.324-3.457-34.438 1.508-46.976 14.054-12.548 12.548-17.512 30.66-14.063 46.977-13.977 9.099-23.276 25.416-23.276 43.161 0 17.742 9.3 34.058 23.278 43.154-3.448 16.317 1.514 34.429 14.057 46.97 12.543 12.552 30.657 17.516 46.978 14.065 6.446 9.904 16.522 17.438 28.154 21v65.786c-4.839-5.721-37.573-45.309-97.467-45.309-8.284 0-15 6.716-15 15 0 65.21 49.225 119.131 112.467 126.579v67.288h-97.467c-8.284 0-15 6.716-15 15s6.716 15 15 15h224.934c8.284 0 15-6.716 15-15s-6.716-15-15-15h-97.467v-67.287c63.242-7.448 112.467-61.369 112.467-126.579zm-31.373 16.359c-6.9 40.662-39.072 72.833-79.735 79.733 4.534-26.981 27.139-70.893 79.735-79.733zm-192.188-.001c52.542 8.827 75.18 52.629 79.735 79.734-40.662-6.9-72.834-39.072-79.735-79.734zm96.094-79.558c-9.775 0-18.739-6.791-20.408-15.461-.952-4.952-4.329-9.094-8.987-11.023-1.044-.433-7.545-3.035-14.15 1.436-7.315 4.952-18.456 3.414-25.369-3.504-6.914-6.913-8.453-18.056-3.503-25.368 2.826-4.176 3.366-9.492 1.436-14.15s-6.071-8.035-11.023-8.987c-8.67-1.669-15.461-10.633-15.461-20.408 0-9.78 6.791-18.748 15.461-20.416 4.952-.952 9.094-4.33 11.024-8.989s1.39-9.977-1.439-14.152c-4.95-7.309-3.41-18.45 3.51-25.37 6.905-6.91 18.048-8.445 25.365-3.491 4.176 2.826 9.492 3.366 14.15 1.436s8.035-6.071 8.987-11.022c1.668-8.674 10.632-15.465 20.407-15.465s18.739 6.791 20.408 15.461c.952 4.951 4.329 9.093 8.987 11.022 4.657 1.93 9.975 1.39 14.15-1.436 7.316-4.953 18.458-3.421 25.369 3.496 6.916 6.915 8.456 18.057 3.506 25.365-2.829 4.176-3.369 9.493-1.439 14.152 1.931 4.659 6.072 8.037 11.024 8.989 8.67 1.668 15.461 10.636 15.461 20.416 0 9.775-6.791 18.739-15.461 20.408-4.952.952-9.094 4.329-11.023 8.987-1.931 4.658-1.391 9.975 1.436 14.15 4.95 7.313 3.411 18.455-3.507 25.373-6.909 6.913-18.05 8.45-25.365 3.499-4.176-2.825-9.49-3.365-14.15-1.436-4.658 1.93-8.035 6.071-8.987 11.023-1.67 8.674-10.634 15.465-20.409 15.465z"/><path d="m303.134 127.467c0-25.989-21.145-47.134-47.134-47.134s-47.134 21.145-47.134 47.134 21.145 47.133 47.134 47.133 47.134-21.144 47.134-47.133zm-47.134 17.133c-9.447 0-17.134-7.686-17.134-17.133s7.687-17.134 17.134-17.134 17.134 7.687 17.134 17.134-7.687 17.133-17.134 17.133z"/></g></svg>