<?xml version="1.0" encoding="iso-8859-1"?>
<!-- Generator: Adobe Illustrator 19.0.0, SVG Export Plug-In . SVG Version: 6.00 Build 0)  -->
<svg version="1.1" id="Capa_1" xmlns="http://www.w3.org/2000/svg" xmlns:xlink="http://www.w3.org/1999/xlink" x="0px" y="0px"
	 viewBox="0 0 512.001 512.001" style="enable-background:new 0 0 512.001 512.001;" xml:space="preserve">
<g>
	<g>
		<path d="M189.116,48.013c-3.909-3.899-10.239-3.899-14.148,0c-3.899,3.909-3.899,10.239,0,14.148
			c3.909,3.899,10.239,3.899,14.148,0C193.015,58.252,193.015,51.923,189.116,48.013z"/>
	</g>
</g>
<g>
	<g>
		<path d="M497.322,409.831c-0.043-0.042-0.086-0.084-0.129-0.126l-78.498-75.717c1.517-8.883-3.266-19.745-8.572-31.79
			c-6.195-14.066-53.75-130.227-68.335-165.832c-3.672-8.926-12.727-14.128-22.536-12.954c-19.001,2.242-37.308-0.588-51.549-7.966
			c-2.973-1.541-6.218-2.332-9.473-2.373c-2.817-7.637-3.809-16.72-4.845-26.211c-1.877-17.178-3.816-34.939-16.93-48.058
			L206.449,8.791c-9.228-9.211-23.223-11.421-34.82-5.502C19.493,81.085,22.668,80.148,22.505,80.306
			C6.683,89.427-1.043,104.477,0.164,123.826c2.164,34.702,32.119,74.289,49.783,94.799c26.357,30.605,57.353,56.259,78.965,65.356
			c7.624,3.21,16.639,5.476,24.364,2.595c7.112,3.368,13.807,8.078,19.551,13.823c4.477,4.476,8.266,9.422,11.323,14.743
			c-4.582,10.876,0.42,26.79,15.377,49.333c11.569,17.435,27.322,35.855,37.06,45.587
			c50.647,50.657,137.275,101.939,196.644,101.939c21.347,0,65.343-10.101,71.241-32.167c0.002-0.006,0.003-0.012,0.004-0.018
			l5.806-21.743C514.866,440.894,509.9,422.409,497.322,409.831z M321.62,143.268c0.657-0.079,1.433,0.109,1.677,0.701l6.509,15.853
			l-13.849,2.77c-5.415,1.083-8.927,6.35-7.844,11.765c1.086,5.431,6.366,8.924,11.765,7.844l17.665-3.533
			c5.162,12.57,6.348,15.435,9.436,22.969l-13.746,2.751c-5.414,1.083-8.927,6.351-7.843,11.766
			c1.083,5.412,6.347,8.926,11.766,7.843l17.557-3.512l9.197,22.393c0.04,0.099,0.082,0.197,0.126,0.294l0.116,0.282l-13.442,2.69
			c-5.415,1.083-8.927,6.351-7.843,11.766c1.083,5.412,6.347,8.926,11.766,7.843l17.255-3.452
			c3.132,7.624,6.634,16.154,9.436,22.972l-15.017,3.007c-5.415,1.084-8.926,6.352-7.842,11.767c1.09,5.441,6.38,8.922,11.767,7.841
			l18.899-3.783c3.542,8.203,9.345,20.578,9.834,25.254c-1.423,0.406-4.735,0.968-11.66,0.577
			c-8.686-0.487-20.883-2.313-37.296-5.583c-3.042-0.605-5.949-2.906-7.281-6.203c-40.194-98.989-64.202-160.249-72.522-179.918
			C285.65,143.621,303.463,145.411,321.62,143.268z M145.908,267.903c-17.798,2.986-92.219-60.73-118.029-117.93
			c-19.559-43.349,3.734-50.858,4.7-52.392c3.286-1.892,6.126-3.524,8.455-4.557c4.176-1.86,6.328-2.534,15.135,5.747
			c10.771,10.129,27.445,31.117,55.069,65.888c11.846,14.911,25.271,31.81,41.437,51.914
			C163.064,229.518,162.689,252.964,145.908,267.903z M126.896,152.217c-29.145-36.687-45.199-56.896-57.029-68.018
			c-1.599-1.503-3.185-2.903-4.772-4.184l115.618-58.911c3.865-1.973,8.528-1.233,11.601,1.833l30.004,30.005
			c8.14,8.144,9.623,21.719,11.192,36.091c1.531,14.011,3.134,28.295,10.494,40.523c3.837,6.447,8.644,18.095,21.094,49.193
			c-1.582-0.017-3.182-0.035-4.805-0.055c-34.418-0.413-73.157-0.861-97.273,18.823
			C149.195,180.284,137.418,165.461,126.896,152.217z M186.968,286.26c-5.437-5.439-11.555-10.171-18.081-14.027
			c12.376-17.709,13.664-40.439,5.52-58.151c18.234-16.189,53.988-15.769,85.65-15.391c4.503,0.054,8.832,0.1,13.057,0.105
			c11.188,28.008,27.505,68.792,51.081,126.855c1.13,2.796,2.684,5.39,4.576,7.725c-2.923,8.855-7.882,16.929-14.545,23.584
			c-1.601,1.602-3.29,3.106-5.049,4.511c-32.81-27.384-41.816-38.619-67.151-48.954c-13.079-5.333-29.267-10.337-41.446-8.868
			C196.812,297.387,192.264,291.556,186.968,286.26z M485.15,474.681c-0.39,1.406-4.36,6.075-17.981,10.888
			c-11.6,4.1-24.141,6.166-31.424,6.395c-53.289,1.675-137.527-48.543-185.018-96.044c-8.379-8.374-22.237-24.468-32.862-40.016
			c-14.672-21.468-15.422-30.216-15.27-32.503c4.116-0.745,16.396,1.318,31.878,7.632c22.762,9.285,29.762,19.306,66.885,49.935
			c0.581,0.613,1.225,1.14,1.919,1.577c131.992,108.424,172.364,88.575,181.636,91.331c0.055,0.122,0.127,0.303,0.205,0.556
			C485.168,474.592,485.165,474.623,485.15,474.681z M490.961,452.914l-0.486,1.819c-6.057-1.686-12.288-0.99-17.202-0.99
			c-23.045,0-67.192-14.224-148.364-79.388c1.181-1.05,2.333-2.134,3.453-3.254c7.783-7.774,13.825-17.009,17.828-27.128
			c20.401,4.062,34.899,6.102,45.42,6.102c5.389,0,9.731-0.539,13.291-1.611l78.34,75.565
			C490.746,431.576,493.705,442.636,490.961,452.914z"/>
	</g>
</g>
<g>
	<g>
		<path d="M154.911,67.911c-2.508-4.92-8.527-6.876-13.447-4.37l-36.445,18.567c-4.92,2.507-6.877,8.527-4.37,13.448
			c2.49,4.885,8.494,6.894,13.447,4.37l36.445-18.567C155.462,78.852,157.417,72.832,154.911,67.911z"/>
	</g>
</g>
<g>
</g>
<g>
</g>
<g>
</g>
<g>
</g>
<g>
</g>
<g>
</g>
<g>
</g>
<g>
</g>
<g>
</g>
<g>
</g>
<g>
</g>
<g>
</g>
<g>
</g>
<g>
</g>
<g>
</g>
</svg>
