<svg height="384pt" viewBox="0 -32 384 384" width="384pt" xmlns="http://www.w3.org/2000/svg"><path d="m336 80h-16v-48c0-17.648438-14.351562-32-32-32h-192c-17.648438 0-32 14.351562-32 32v48h-16c-26.472656 0-48 21.527344-48 48v144c0 26.472656 21.527344 48 48 48h288c26.472656 0 48-21.527344 48-48v-144c0-26.472656-21.527344-48-48-48zm-240-48h192v48h-192zm256 240c0 8.824219-7.175781 16-16 16h-288c-8.824219 0-16-7.175781-16-16v-144c0-8.824219 7.175781-16 16-16h288c8.824219 0 16 7.175781 16 16zm0 0"/><path d="m272 144c-30.871094 0-56 25.128906-56 56s25.128906 56 56 56 56-25.128906 56-56-25.128906-56-56-56zm0 80c-13.230469 0-24-10.769531-24-24s10.769531-24 24-24 24 10.769531 24 24-10.769531 24-24 24zm0 0"/><path d="m112 144c-30.878906 0-56 25.128906-56 56s25.121094 56 56 56 56-25.128906 56-56-25.121094-56-56-56zm0 80c-13.230469 0-24-10.769531-24-24s10.769531-24 24-24 24 10.769531 24 24-10.769531 24-24 24zm0 0"/></svg>