<svg height="512pt" viewBox="-40 0 512 512" width="512pt" xmlns="http://www.w3.org/2000/svg"><path d="m382.867188 157.378906 20.074218-20.074218c7.800782-7.800782 7.800782-20.449219 0-28.246094-7.800781-7.800782-20.445312-7.800782-28.246094 0l-20.074218 20.074218c-33.679688-28.0625-74.605469-45.015624-118.261719-48.984374v-40.199219h19.308594c11.03125 0 19.972656-8.945313 19.972656-19.976563s-8.941406-19.972656-19.972656-19.972656h-78.566407c-11.03125 0-19.972656 8.941406-19.972656 19.972656s8.941406 19.976563 19.972656 19.976563h19.308594v40.199219c-109.28125 9.9375-196.410156 101.742187-196.410156 215.464843 0 119.59375 96.777344 216.386719 216.386719 216.386719 119.589843 0 216.382812-96.777344 216.382812-216.386719 0-51.085937-17.59375-99.464843-49.902343-138.234375zm-166.484376 314.671875c-97.285156 0-176.4375-79.148437-176.4375-176.4375 0-97.285156 79.152344-176.433593 176.4375-176.433593 97.289063 0 176.4375 79.148437 176.4375 176.433593 0 97.289063-79.148437 176.4375-176.4375 176.4375zm92.566407-269c7.800781 7.800781 7.800781 20.449219 0 28.246094l-78.441407 78.441406c-7.800781 7.800781-20.449218 7.800781-28.246093 0-7.800781-7.800781-7.800781-20.449219 0-28.246093l78.4375-78.441407c7.800781-7.800781 20.449219-7.800781 28.25 0zm0 0"/></svg>