<svg id="bold" enable-background="new 0 0 24 24" height="512" viewBox="0 0 24 24" width="512" xmlns="http://www.w3.org/2000/svg"><g><path d="m13.576 12.958c.807-.142 1.424-.86 1.424-1.708v-1.25h1.25c.96 0 1.75-.79 1.75-1.75v-4.5c0-.96-.79-1.75-1.75-1.75h-.75c-.08 0-.15-.04-.2-.1l-.9-1.2c-.33-.44-.85-.7-1.4-.7h-2c-.55 0-1.07.26-1.4.7l-.9 1.2c-.05.06-.12.1-.2.1h-.75c-.96 0-1.75.79-1.75 1.75v4.5c0 .96.79 1.75 1.75 1.75h1.25v1.25c0 .848.617 1.566 1.424 1.708zm-4.076-7.458c0-1.38 1.12-2.5 2.5-2.5s2.5 1.12 2.5 2.5-1.12 2.5-2.5 2.5-2.5-1.12-2.5-2.5z"/></g><g><path d="m12 24c-.553 0-1-.448-1-1v-10.75c0-.552.447-1 1-1s1 .448 1 1v10.75c0 .552-.447 1-1 1z"/></g><g><path d="m2.999 24c-.226 0-.454-.077-.641-.233-.424-.354-.479-.985-.125-1.409l9-10.75c.354-.422.985-.48 1.408-.125.424.354.479.985.125 1.409l-9 10.75c-.197.236-.481.358-.767.358z"/></g><g><path d="m21.001 24c-.286 0-.57-.122-.768-.358l-9-10.75c-.354-.424-.299-1.054.125-1.409s1.056-.298 1.408.125l9 10.75c.354.424.299 1.054-.125 1.409-.186.156-.414.233-.64.233z"/></g></svg>