<svg height="512pt" viewBox="-11 0 512 512" width="512pt" xmlns="http://www.w3.org/2000/svg"><path d="m19.914062 393.808594 96.097657 50.480468 97.085937-51.882812-91.683594-48.992188zm0 0"/><path d="m469.902344 393.808594-101.5-50.394532-91.683594 48.992188 97.085938 51.882812zm0 0"/><path d="m154.394531 327.039062 90.515625 48.371094 90.511719-48.371094-90.511719-44.941406zm0 0"/><path d="m259.902344 256.066406 229.914062 114.15625v-249.640625l-229.914062-120.582031zm0 0"/><path d="m229.914062 0-229.914062 120.582031v249.640625l229.914062-114.15625zm0 0"/><path d="m341.722656 461.144531-96.8125-51.738281-96.816406 51.738281 96.816406 50.855469zm0 0"/></svg>