<?xml version="1.0" encoding="iso-8859-1"?>
<!-- Generator: Adobe Illustrator 19.0.0, SVG Export Plug-In . SVG Version: 6.00 Build 0)  -->
<svg version="1.1" id="Capa_1" xmlns="http://www.w3.org/2000/svg" xmlns:xlink="http://www.w3.org/1999/xlink" x="0px" y="0px"
	 viewBox="0 0 368 368" style="enable-background:new 0 0 368 368;" xml:space="preserve">
<g>
	<g>
		<path d="M240.004,64.808V24c0-13.232-10.768-24-24.04-24c-1.088,0-63.96,0-63.96,0s0,0-0.008,0c-13.224,0-23.992,10.76-24,23.992
			v40.816c-18.232,3.72-32,19.88-32,39.192v224c0.008,22.056,17.952,40,40.008,40h96c22.056,0,40-17.944,40-40V104
			C272.004,84.688,258.236,68.528,240.004,64.808z M144.004,24c0-4.408,3.584-8,8-8h32c16.608,0,26.32,0,32-0.576V16
			c4.416,0,8,3.592,8,8v40h-80V24z M256.004,328c0,13.232-10.768,24-24,24h-96c-13.232,0-24-10.768-24-24V192h144V328z M256.004,176
			h-144v-32h144V176z M256.004,128h-144v-24c0-13.232,10.768-24,24-24h96c13.232,0,24,10.768,24,24V128z"/>
	</g>
</g>
<g>
</g>
<g>
</g>
<g>
</g>
<g>
</g>
<g>
</g>
<g>
</g>
<g>
</g>
<g>
</g>
<g>
</g>
<g>
</g>
<g>
</g>
<g>
</g>
<g>
</g>
<g>
</g>
<g>
</g>
</svg>
