<svg height="512pt" viewBox="-57 0 512 512" width="512pt" xmlns="http://www.w3.org/2000/svg"><path d="m395.976562 429.171875-76.445312-122.359375h9.039062c5.574219 0 10.6875-3.089844 13.277344-8.023438 2.59375-4.933593 2.234375-10.898437-.925781-15.488281l-53.363281-77.449219c5.285156-.3125 10.042968-3.402343 12.472656-8.15625 2.5625-5.023437 2.089844-11.058593-1.21875-15.625l-77.699219-107.152343c11.226563-7.253907 18.683594-19.875 18.683594-34.214844 0-22.445313-18.246094-40.703125-40.667969-40.703125-22.425781 0-40.667968 18.257812-40.667968 40.703125 0 14.339844 7.457031 26.960937 18.683593 34.214844l-77.699219 107.152343c-3.308593 4.566407-3.78125 10.601563-1.21875 15.621094 2.425782 4.757813 7.183594 7.84375 12.472657 8.160156l-53.363281 77.449219c-3.164063 4.589844-3.519532 10.554688-.929688 15.488281 2.59375 4.933594 7.707031 8.023438 13.28125 8.023438h9.035156l-76.445312 122.359375c-2.886719 4.625-3.039063 10.453125-.394532 15.21875 2.644532 4.769531 7.664063 7.730469 13.117188 7.730469h14.855469c.398437.03125.796875.058594 1.203125.058594h.226562c.804688-.011719 1.601563-.042969 2.40625-.058594h121.1875v44.878906c0 8.285156 6.714844 15 15 15h58.5c8.28125 0 15-6.714844 15-15v-44.878906h139.878906c5.449219 0 10.476563-2.960938 13.117188-7.730469 2.644531-4.765625 2.492188-10.59375-.398438-15.21875zm-170.214843-296.738281c-10.953125 22.972656-35.589844 61.628906-82.628907 79.21875l8.449219-12.265625c3.164063-4.585938 3.519531-10.550781.929688-15.484375-2.328125-4.429688-6.6875-7.375-11.585938-7.929688l58.203125-80.265625zm66.710937 144.378906c-5.453125 0-10.476562 2.957031-13.117187 7.726562-2.644531 4.769532-2.492188 10.597657.394531 15.222657l9.746094 15.59375c-43.269532-3.398438-82.550782-23.492188-109.640625-41.375-15.820313-10.441407-29.175781-21.1875-39.1875-29.960938 25.195312-7.167969 47.894531-19.921875 67.75-38.097656 16.542969-15.152344 28.496093-31.667969 36.984375-46.402344l11.929687 16.453125c-4.898437.558594-9.257812 3.5-11.585937 7.929688-2.59375 4.933594-2.234375 10.898437.925781 15.488281l53.347656 77.421875zm-181.195312-18.925781c11.09375 10.417969 28.804687 25.71875 51.386718 40.691406 37.175782 24.652344 74.996094 39.933594 111.382813 45.203125-11.644531 7.960938-26.265625 17.101562-43.53125 26.234375-41.726563 22.074219-107.585937 48.417969-188.28125 51.824219l76.269531-122.082032c2.886719-4.621093 3.039063-10.449218.398438-15.21875-2.644532-4.769531-7.667969-7.726562-13.121094-7.726562h-7.542969zm76.339844 164.234375c22.347656-8.386719 41.796874-17.542969 57.886718-26.097656 31.082032-16.53125 53.9375-32.898438 67.285156-43.382813l43.410157 69.480469zm11.511718-392.121094c5.882813 0 10.667969 4.800781 10.667969 10.703125 0 5.898437-4.785156 10.699219-10.667969 10.699219-5.882812 0-10.667968-4.800782-10.667968-10.699219 0-5.902344 4.785156-10.703125 10.667968-10.703125zm14.25 452h-28.5v-29.878906h28.5zm0 0"/><path d="m247.503906 249.074219c0-11.109375-8.953125-20.113281-20-20.113281s-20 9.003906-20 20.113281c0 11.105469 8.953125 20.113281 20 20.113281s20-9.007812 20-20.113281zm0 0"/><path d="m166.316406 355.757812c0-11.109374-8.957031-20.113281-20-20.113281-11.046875 0-20 9.003907-20 20.113281 0 11.105469 8.953125 20.109376 20 20.109376 11.042969 0 20-9.003907 20-20.109376zm0 0"/></svg>