<?xml version="1.0" encoding="iso-8859-1"?>
<!-- Generator: Adobe Illustrator 19.0.0, SVG Export Plug-In . SVG Version: 6.00 Build 0)  -->
<svg version="1.1" id="Capa_1" xmlns="http://www.w3.org/2000/svg" xmlns:xlink="http://www.w3.org/1999/xlink" x="0px" y="0px"
	 viewBox="0 0 425.481 425.481" style="enable-background:new 0 0 425.481 425.481;" xml:space="preserve">
<g>
	<g>
		<path d="M388.101,95.609L220.165,1.913c-4.621-2.551-10.227-2.551-14.848,0L36.869,95.609c-4.755,2.746-7.683,7.821-7.68,13.312
			v183.808c-0.048,5.108,2.447,9.906,6.656,12.8l167.936,117.248c5.243,3.606,12.165,3.606,17.408,0l168.448-117.248
			c4.209-2.894,6.704-7.692,6.656-12.8V108.921C396.193,103.322,393.054,98.222,388.101,95.609z M197.125,187.769L76.293,108.921
			l120.832-67.584V187.769z M365.061,285.049l-137.216,95.744V224.121l137.216-89.088V285.049z"/>
	</g>
</g>
<g>
</g>
<g>
</g>
<g>
</g>
<g>
</g>
<g>
</g>
<g>
</g>
<g>
</g>
<g>
</g>
<g>
</g>
<g>
</g>
<g>
</g>
<g>
</g>
<g>
</g>
<g>
</g>
<g>
</g>
</svg>
