<?xml version="1.0" encoding="iso-8859-1"?>
<!-- Generator: Adobe Illustrator 19.0.0, SVG Export Plug-In . SVG Version: 6.00 Build 0)  -->
<svg version="1.1" id="Capa_1" xmlns="http://www.w3.org/2000/svg" xmlns:xlink="http://www.w3.org/1999/xlink" x="0px" y="0px"
	 viewBox="0 0 480 480" style="enable-background:new 0 0 480 480;" xml:space="preserve">
<g>
	<g>
		<path d="M400,192.36V192c0-88.224-71.776-160-160-160S80,103.776,80,192v0.36c-18.168,1.648-34.696,8.904-48,19.92V78.528
			C41.288,75.216,48,66.416,48,56c0-13.232-10.768-24-24-24S0,42.768,0,56c0,10.416,6.712,19.216,16,22.528v151.088
			C5.968,243.904,0,261.248,0,280v96c0,4.424,3.576,8,8,8h48.472C60.464,419.944,91,448,128,448s67.536-28.056,71.528-64h80.944
			C284.464,419.944,315,448,352,448s67.536-28.056,71.528-64H472c4.424,0,8-3.576,8-8v-96C480,234.168,444.792,196.416,400,192.36z
			 M24,48c4.416,0,8,3.584,8,8s-3.584,8-8,8s-8-3.584-8-8S19.584,48,24,48z M128,432c-30.872,0-56-25.128-56-56s25.128-56,56-56
			s56,25.128,56,56S158.872,432,128,432z M352,432c-30.872,0-56-25.128-56-56s25.128-56,56-56s56,25.128,56,56S382.872,432,352,432z
			 M464,368h-40.472C419.536,332.056,389,304,352,304s-67.536,28.056-71.528,64h-80.944C195.536,332.056,165,304,128,304
			s-67.536,28.056-71.528,64H16v-88c0-39.704,32.296-72,72-72c4.424,0,8-3.576,8-8v-8c0-79.4,64.6-144,144-144s144,64.6,144,144v8
			c0,4.424,3.576,8,8,8c39.704,0,72,32.296,72,72V368z"/>
	</g>
</g>
<g>
	<g>
		<path d="M128,336c-22.056,0-40,17.944-40,40c0,22.056,17.944,40,40,40c22.056,0,40-17.944,40-40C168,353.944,150.056,336,128,336z
			 M128,400c-13.232,0-24-10.768-24-24s10.768-24,24-24s24,10.768,24,24S141.232,400,128,400z"/>
	</g>
</g>
<g>
	<g>
		<path d="M352,336c-22.056,0-40,17.944-40,40c0,22.056,17.944,40,40,40c22.056,0,40-17.944,40-40C392,353.944,374.056,336,352,336z
			 M352,400c-13.232,0-24-10.768-24-24s10.768-24,24-24s24,10.768,24,24S365.232,400,352,400z"/>
	</g>
</g>
<g>
	<g>
		<path d="M224,72c-57.344,0-104,46.656-104,104v24c0,4.424,3.576,8,8,8h96c4.424,0,8-3.576,8-8V80C232,75.576,228.424,72,224,72z
			 M216,192h-80v-16c0-45.832,35.208-83.584,80-87.64V192z"/>
	</g>
</g>
<g>
	<g>
		<path d="M256,72c-4.424,0-8,3.576-8,8v120c0,4.424,3.576,8,8,8h96c4.424,0,8-3.576,8-8v-24C360,118.656,313.344,72,256,72z
			 M344,192h-80V88.36c44.792,4.056,80,41.808,80,87.64V192z"/>
	</g>
</g>
<g>
	<g>
		<rect x="256" y="224" width="32" height="16"/>
	</g>
</g>
<g>
</g>
<g>
</g>
<g>
</g>
<g>
</g>
<g>
</g>
<g>
</g>
<g>
</g>
<g>
</g>
<g>
</g>
<g>
</g>
<g>
</g>
<g>
</g>
<g>
</g>
<g>
</g>
<g>
</g>
</svg>
