<?xml version="1.0" encoding="iso-8859-1"?>
<!-- Generator: Adobe Illustrator 19.0.0, SVG Export Plug-In . SVG Version: 6.00 Build 0)  -->
<svg version="1.1" id="Capa_1" xmlns="http://www.w3.org/2000/svg" xmlns:xlink="http://www.w3.org/1999/xlink" x="0px" y="0px"
	 viewBox="0 0 512 512" style="enable-background:new 0 0 512 512;" xml:space="preserve">
<g>
	<g>
		<path d="M298.202,367.116l-68.76-96.284H256c5.537,0,10.62-3.047,13.228-7.925c2.608-4.878,2.314-10.796-0.747-15.396
			l-64.453-96.68H226c5.684,0,10.869-3.208,13.418-8.291c2.534-5.083,1.992-11.162-1.421-15.703l-75-121
			c-5.654-7.559-18.34-7.559-23.994,0l-75,121c-3.413,4.541-3.955,10.62-1.421,15.703c2.549,5.083,7.734,8.291,13.418,8.291h21.973
			l-64.453,96.68c-3.062,4.6-3.354,10.518-0.747,15.396s7.69,7.925,13.228,7.925h26.558l-69.76,96.284
			c-3.268,4.57-3.707,10.591-1.129,15.586c2.563,4.995,7.705,8.13,13.33,8.13h271c5.625,0,10.767-3.135,13.33-8.13
			C301.908,377.707,301.469,371.686,298.202,367.116z"/>
	</g>
</g>
<g>
	<g>
		<path d="M497,481.832H391v-61h-60v61H181v-61h-60v61H15c-8.291,0-15,6.709-15,15c0,8.291,6.709,15,15,15h482
			c8.291,0,15-6.709,15-15C512,488.541,505.291,481.832,497,481.832z"/>
	</g>
</g>
<g>
	<g>
		<path d="M509.202,367.114l-69.76-96.284H466c5.537,0.002,10.62-3.045,13.228-7.923c2.607-4.878,2.314-10.796-0.747-15.396
			l-64.453-96.68H436c5.684,0,10.869-3.208,13.418-8.291c2.534-5.083,1.992-11.162-1.421-15.703l-75-121
			c-5.654-7.559-18.34-7.559-23.994,0l-75,121c-3.413,4.541-3.955,10.62-1.421,15.703c2.549,5.083,7.734,8.291,13.418,8.291h21.973
			l-33.946,50.92l19.415,29.119c9.214,13.843,10.078,31.538,2.241,46.172c-3.384,6.343-8.145,11.631-13.799,15.615l40.737,57.026
			c8.663,12.131,10.291,27.378,5.356,41.147H497c5.625,0,10.767-3.135,13.33-8.13C512.908,377.705,512.469,371.684,509.202,367.114z
			"/>
	</g>
</g>
<g>
</g>
<g>
</g>
<g>
</g>
<g>
</g>
<g>
</g>
<g>
</g>
<g>
</g>
<g>
</g>
<g>
</g>
<g>
</g>
<g>
</g>
<g>
</g>
<g>
</g>
<g>
</g>
<g>
</g>
</svg>
