{
  "accessors": [
    {
      "bufferView": 2,
      "componentType": 5126,
      "count": 536,
      "max": [
        9.008270263671875,
        0.29537001252174377,
        7.0091700553894043
      ],
      "min": [
        -8.6243295669555664,
        -47.833141326904297,
        -10.202400207519531
      ],
      "type": "VEC3"
    },
    {
      "bufferView": 2,
      "byteOffset": 6432,
      "componentType": 5126,
      "count": 536,
      "max": [
        0.98922181129455566,
        0.99988991022109985,
        0.98963749408721924
      ],
      "min": [
        -0.98928624391555786,
        -0.53008204698562622,
        -0.9926716685295105
      ],
      "type": "VEC3"
    },
    {
      "bufferView": 3,
      "componentType": 5126,
      "count": 536,
      "max": [
        0.99896711111068726,
        0.94355875253677368,
        0.99737513065338135,
        1
      ],
      "min": [
        -0.99888300895690918,
        -0.87653970718383789,
        -0.99887990951538086,
        -1
      ],
      "type": "VEC4"
    },
    {
      "bufferView": 1,
      "componentType": 5126,
      "count": 536,
      "max": [
        0.98663997650146484,
        0.97640001773834229
      ],
      "min": [
        0.026900000870227814,
        0.010479999706149101
      ],
      "type": "VEC2"
    },
    {
      "bufferView": 0,
      "componentType": 5125,
      "count": 1152,
      "max": [
        535
      ],
      "min": [
        0
      ],
      "type": "SCALAR"
    },
    {
      "bufferView": 2,
      "byteOffset": 12864,
      "componentType": 5126,
      "count": 150,
      "max": [
        17.317619323730469,
        -8.8381099700927734,
        17.69304084777832
      ],
      "min": [
        -17.317609786987305,
        -44.604068756103516,
        -12.668149948120117
      ],
      "type": "VEC3"
    },
    {
      "bufferView": 2,
      "byteOffset": 14664,
      "componentType": 5126,
      "count": 150,
      "max": [
        0.7997211217880249,
        -0.43263858556747437,
        0.78008943796157837
      ],
      "min": [
        -0.79236114025115967,
        -0.99865776300430298,
        -0.61623132228851318
      ],
      "type": "VEC3"
    },
    {
      "bufferView": 3,
      "byteOffset": 8576,
      "componentType": 5126,
      "count": 150,
      "max": [
        0.90585517883300781,
        0.40637168288230896,
        0.99801522493362427,
        1
      ],
      "min": [
        -0.99803686141967773,
        -0.49175348877906799,
        -0.99944674968719482,
        -1
      ],
      "type": "VEC4"
    },
    {
      "bufferView": 1,
      "byteOffset": 4288,
      "componentType": 5126,
      "count": 150,
      "max": [
        0.99788999557495117,
        1
      ],
      "min": [
        0,
        0
      ],
      "type": "VEC2"
    },
    {
      "bufferView": 0,
      "byteOffset": 4608,
      "componentType": 5125,
      "count": 480,
      "max": [
        149
      ],
      "min": [
        0
      ],
      "type": "SCALAR"
    },
    {
      "bufferView": 2,
      "byteOffset": 16464,
      "componentType": 5126,
      "count": 972,
      "max": [
        7.6840801239013672,
        -27.816240310668945,
        6.0843400955200195
      ],
      "min": [
        -7.4996500015258789,
        -48.864288330078125,
        -9.1005897521972656
      ],
      "type": "VEC3"
    },
    {
      "bufferView": 2,
      "byteOffset": 28128,
      "componentType": 5126,
      "count": 972,
      "max": [
        0.99475914239883423,
        0.62660354375839233,
        0.99602651596069336
      ],
      "min": [
        -0.9931451678276062,
        -0.99982035160064697,
        -0.98950833082199097
      ],
      "type": "VEC3"
    },
    {
      "bufferView": 3,
      "byteOffset": 10976,
      "componentType": 5126,
      "count": 972,
      "max": [
        0.93965369462966919,
        0.99975490570068359,
        0.84335535764694214,
        1
      ],
      "min": [
        -0.99184149503707886,
        -0.99975240230560303,
        -0.99483984708786011,
        -1
      ],
      "type": "VEC4"
    },
    {
      "bufferView": 1,
      "byteOffset": 5488,
      "componentType": 5126,
      "count": 972,
      "max": [
        0.99219000339508057,
        0.99048000574111938
      ],
      "min": [
        0.0095300003886222839,
        0.0095199998468160629
      ],
      "type": "VEC2"
    },
    {
      "bufferView": 0,
      "byteOffset": 6528,
      "componentType": 5125,
      "count": 5184,
      "max": [
        971
      ],
      "min": [
        0
      ],
      "type": "SCALAR"
    },
    {
      "bufferView": 2,
      "byteOffset": 39792,
      "componentType": 5126,
      "count": 2400,
      "max": [
        12.202030181884766,
        -26.9822998046875,
        9.3601303100585938
      ],
      "min": [
        -11.484939575195312,
        -49.301288604736328,
        -13.716500282287598
      ],
      "type": "VEC3"
    },
    {
      "bufferView": 2,
      "byteOffset": 68592,
      "componentType": 5126,
      "count": 2400,
      "max": [
        0.59605008363723755,
        -0.76222175359725952,
        0.5815090537071228
      ],
      "min": [
        -0.45333153009414673,
        -0.99996966123580933,
        -0.62589144706726074
      ],
      "type": "VEC3"
    },
    {
      "bufferView": 3,
      "byteOffset": 26528,
      "componentType": 5126,
      "count": 2400,
      "max": [
        0.99996078014373779,
        0.5796201229095459,
        0.99992942810058594,
        1
      ],
      "min": [
        -0.99995756149291992,
        -0.53086274862289429,
        -0.99998092651367188,
        -1
      ],
      "type": "VEC4"
    },
    {
      "bufferView": 1,
      "byteOffset": 13264,
      "componentType": 5126,
      "count": 2400,
      "max": [
        0.99417001008987427,
        0.99814999103546143
      ],
      "min": [
        0.0085199996829032898,
        0.0023799999617040157
      ],
      "type": "VEC2"
    },
    {
      "bufferView": 0,
      "byteOffset": 27264,
      "componentType": 5125,
      "count": 7680,
      "max": [
        2399
      ],
      "min": [
        0
      ],
      "type": "SCALAR"
    }
  ],
  "asset": {
    "extras": {
      "author": "Animium 3d model (https://sketchfab.com/pelister)",
      "license": "CC-BY-4.0 (http://creativecommons.org/licenses/by/4.0/)",
      "source": "https://sketchfab.com/models/8792070e9ee942078c26ca44a670a902",
      "title": "Flower 3d model"
    },
    "generator": "Sketchfab-3.19.2",
    "version": "2.0"
  },
  "bufferViews": [
    {
      "buffer": 0,
      "byteLength": 57984,
      "byteOffset": 0,
      "name": "floatBufferViews",
      "target": 34963
    },
    {
      "buffer": 0,
      "byteLength": 32464,
      "byteOffset": 57984,
      "byteStride": 8,
      "name": "floatBufferViews",
      "target": 34962
    },
    {
      "buffer": 0,
      "byteLength": 97392,
      "byteOffset": 90448,
      "byteStride": 12,
      "name": "floatBufferViews",
      "target": 34962
    },
    {
      "buffer": 0,
      "byteLength": 64928,
      "byteOffset": 187840,
      "byteStride": 16,
      "name": "floatBufferViews",
      "target": 34962
    }
  ],
  "buffers": [
    {
      "byteLength": 252768,
      "uri": "scene.bin"
    }
  ],
  "images": [
    {
      "uri": "textures/Material__48_baseColor.png"
    },
    {
      "uri": "textures/Material__50_baseColor.png"
    },
    {
      "uri": "textures/Material__47_baseColor.png"
    },
    {
      "uri": "textures/Material__49_baseColor.png"
    }
  ],
  "materials": [
    {
      "alphaMode": "BLEND",
      "doubleSided": true,
      "emissiveFactor": [
        0,
        0,
        0
      ],
      "name": "Material__47",
      "pbrMetallicRoughness": {
        "baseColorFactor": [
          1,
          1,
          1,
          1
        ],
        "baseColorTexture": {
          "index": 2,
          "texCoord": 0
        },
        "metallicFactor": 0.46000000000000002,
        "roughnessFactor": 0.48999999999999999
      }
    },
    {
      "alphaMode": "BLEND",
      "doubleSided": true,
      "emissiveFactor": [
        0,
        0,
        0
      ],
      "name": "Material__48",
      "pbrMetallicRoughness": {
        "baseColorFactor": [
          1,
          1,
          1,
          1
        ],
        "baseColorTexture": {
          "index": 0,
          "texCoord": 0
        },
        "metallicFactor": 0.58999999999999997,
        "roughnessFactor": 0.76000000000000001
      }
    },
    {
      "alphaMode": "BLEND",
      "doubleSided": true,
      "emissiveFactor": [
        0,
        0,
        0
      ],
      "name": "Material__49",
      "pbrMetallicRoughness": {
        "baseColorFactor": [
          1,
          1,
          1,
          1
        ],
        "baseColorTexture": {
          "index": 3,
          "texCoord": 0
        },
        "metallicFactor": 0.34000000000000002,
        "roughnessFactor": 0.32000000000000001
      }
    },
    {
      "alphaMode": "BLEND",
      "doubleSided": true,
      "emissiveFactor": [
        0,
        0,
        0
      ],
      "name": "Material__50",
      "pbrMetallicRoughness": {
        "baseColorFactor": [
          1,
          1,
          1,
          1
        ],
        "baseColorTexture": {
          "index": 1,
          "texCoord": 0
        },
        "metallicFactor": 0.22,
        "roughnessFactor": 0.26000000000000001
      }
    }
  ],
  "meshes": [
    {
      "primitives": [
        {
          "attributes": {
            "NORMAL": 1,
            "POSITION": 0,
            "TANGENT": 2,
            "TEXCOORD_0": 3
          },
          "indices": 4,
          "material": 0,
          "mode": 4
        }
      ]
    },
    {
      "primitives": [
        {
          "attributes": {
            "NORMAL": 6,
            "POSITION": 5,
            "TANGENT": 7,
            "TEXCOORD_0": 8
          },
          "indices": 9,
          "material": 1,
          "mode": 4
        }
      ]
    },
    {
      "primitives": [
        {
          "attributes": {
            "NORMAL": 11,
            "POSITION": 10,
            "TANGENT": 12,
            "TEXCOORD_0": 13
          },
          "indices": 14,
          "material": 2,
          "mode": 4
        }
      ]
    },
    {
      "primitives": [
        {
          "attributes": {
            "NORMAL": 16,
            "POSITION": 15,
            "TANGENT": 17,
            "TEXCOORD_0": 18
          },
          "indices": 19,
          "material": 3,
          "mode": 4
        }
      ]
    }
  ],
  "nodes": [
    {
      "children": [
        1
      ],
      "name": "RootNode (gltf orientation matrix)",
      "rotation": [
        -0.70710678118654746,
        -0,
        -0,
        0.70710678118654757
      ]
    },
    {
      "children": [
        2
      ],
      "matrix": [
        1,
        0,
        0,
        0,
        0,
        0,
        -1,
        0,
        0,
        1,
        0,
        0,
        0,
        -28.931425094604492,
        -25.892915725708008,
        1
      ],
      "name": "RootNode (model correction matrix)"
    },
    {
      "children": [
        3,
        4,
        5,
        6
      ],
      "name": "marigold.obj.cleaner"
    },
    {
      "mesh": 0,
      "name": ""
    },
    {
      "mesh": 1,
      "name": ""
    },
    {
      "mesh": 2,
      "name": ""
    },
    {
      "mesh": 3,
      "name": ""
    }
  ],
  "samplers": [
    {
      "magFilter": 9729,
      "minFilter": 9987,
      "wrapS": 10497,
      "wrapT": 10497
    }
  ],
  "scene": 0,
  "scenes": [
    {
      "name": "OSG_Scene",
      "nodes": [
        0
      ]
    }
  ],
  "textures": [
    {
      "sampler": 0,
      "source": 0
    },
    {
      "sampler": 0,
      "source": 1
    },
    {
      "sampler": 0,
      "source": 2
    },
    {
      "sampler": 0,
      "source": 3
    }
  ]
}

